<svg width="408" height="146" viewBox="0 0 408 146" fill="none" xmlns="http://www.w3.org/2000/svg">
<path d="M0 0C46.8454 17.233 73.101 27.712 119.5 94.5C135.514 63.1193 147.744 50.0555 176 35.5C149.313 70.9667 134.946 91.8447 119.5 146C82.7014 54.6664 53.8915 31.9055 0 0Z" fill="#E91F4F"/>
<path d="M189.495 89.22C189.885 90.21 190.335 90.93 190.845 91.38C191.355 91.83 191.85 92.07 192.33 92.1V93C190.53 92.91 188.25 92.865 185.49 92.865C182.43 92.865 180.15 92.91 178.65 93V92.1C179.79 92.04 180.6 91.905 181.08 91.695C181.56 91.455 181.8 91.05 181.8 90.48C181.8 89.94 181.62 89.22 181.26 88.32L178.56 80.94H168.75L167.58 84.045C166.74 86.205 166.32 87.87 166.32 89.04C166.32 90.15 166.65 90.93 167.31 91.38C168 91.8 169.005 92.04 170.325 92.1V93C168.285 92.91 166.425 92.865 164.745 92.865C163.365 92.865 162.225 92.91 161.325 93V92.1C162.795 91.83 164.085 90.255 165.195 87.375L175.455 61.05C175.785 61.08 176.31 61.095 177.03 61.095C177.75 61.095 178.26 61.08 178.56 61.05L189.495 89.22ZM178.245 80.04L173.79 67.89L169.11 80.04H178.245ZM213.855 61.23C215.235 61.23 216.375 61.185 217.275 61.095V61.995C215.895 62.565 214.455 64.305 212.955 67.215L207.645 77.745V88.23C207.645 89.37 207.72 90.195 207.87 90.705C208.05 91.215 208.365 91.56 208.815 91.74C209.265 91.92 210 92.04 211.02 92.1V93C209.4 92.91 207.09 92.865 204.09 92.865C200.88 92.865 198.555 92.91 197.115 93V92.1C198.105 92.04 198.825 91.92 199.275 91.74C199.755 91.56 200.07 91.215 200.22 90.705C200.4 90.195 200.49 89.37 200.49 88.23V80.625L191.805 64.56C190.875 62.88 190.005 62.04 189.195 62.04V61.095C190.515 61.245 192.285 61.32 194.505 61.32C197.295 61.32 200.115 61.245 202.965 61.095V62.04C201.915 62.04 201.075 62.145 200.445 62.355C199.845 62.535 199.545 62.88 199.545 63.39C199.545 63.66 199.65 63.99 199.86 64.38L206.7 77.565L210.21 70.545C211.38 68.175 211.965 66.315 211.965 64.965C211.965 63.945 211.635 63.21 210.975 62.76C210.345 62.31 209.43 62.055 208.23 61.995V61.095C210.27 61.185 212.145 61.23 213.855 61.23ZM247.742 62.04C246.752 62.19 246.017 62.445 245.537 62.805C245.087 63.165 244.772 63.735 244.592 64.515C244.442 65.295 244.367 66.45 244.367 67.98V79.905C244.367 84.195 243.752 87.375 242.522 89.445C241.712 90.765 240.542 91.8 239.012 92.55C237.482 93.27 235.607 93.63 233.387 93.63C229.907 93.63 227.207 92.88 225.287 91.38C223.907 90.27 222.977 88.875 222.497 87.195C222.017 85.485 221.777 83.1 221.777 80.04V65.91C221.777 64.77 221.687 63.945 221.507 63.435C221.357 62.925 221.042 62.58 220.562 62.4C220.112 62.22 219.392 62.1 218.402 62.04V61.14C219.932 61.23 222.272 61.275 225.422 61.275C228.542 61.275 230.927 61.23 232.577 61.14V62.04C231.497 62.1 230.702 62.22 230.192 62.4C229.712 62.58 229.382 62.925 229.202 63.435C229.022 63.945 228.932 64.77 228.932 65.91V82.875C228.932 86.025 229.382 88.35 230.282 89.85C231.212 91.32 232.832 92.055 235.142 92.055C238.142 92.055 240.257 91.05 241.487 89.04C242.717 87 243.332 84.12 243.332 80.4V68.52C243.332 66.78 243.227 65.49 243.017 64.65C242.807 63.81 242.402 63.21 241.802 62.85C241.202 62.46 240.257 62.19 238.967 62.04V61.14C240.107 61.23 241.727 61.275 243.827 61.275C245.507 61.275 246.812 61.23 247.742 61.14V62.04ZM278.425 81.3H262.18V77.565H278.425V81.3ZM310.421 61.14C310.211 63.99 310.106 66.54 310.106 68.79C310.106 70.2 310.151 71.34 310.241 72.21H309.206C308.486 68.52 307.496 65.925 306.236 64.425C305.006 62.925 303.311 62.175 301.151 62.175H300.116V87.87C300.116 89.13 300.236 90.045 300.476 90.615C300.746 91.185 301.196 91.575 301.826 91.785C302.486 91.965 303.521 92.07 304.931 92.1V93C301.151 92.91 298.301 92.865 296.381 92.865C294.491 92.865 291.746 92.91 288.146 93V92.1C289.556 92.07 290.576 91.965 291.206 91.785C291.866 91.575 292.316 91.185 292.556 90.615C292.826 90.045 292.961 89.13 292.961 87.87V62.175H291.971C290.531 62.175 289.301 62.49 288.281 63.12C287.291 63.75 286.436 64.8 285.716 66.27C284.996 67.71 284.381 69.69 283.871 72.21H282.836C282.926 71.34 282.971 70.2 282.971 68.79C282.971 66.54 282.866 63.99 282.656 61.14C285.386 61.23 290.021 61.275 296.561 61.275C303.101 61.275 307.721 61.23 310.421 61.14ZM337.78 86.16C337.78 88.92 337.885 91.2 338.095 93C336.055 92.91 332.62 92.865 327.79 92.865C321.25 92.865 316.36 92.91 313.12 93V92.1C314.11 92.04 314.83 91.92 315.28 91.74C315.76 91.56 316.075 91.215 316.225 90.705C316.405 90.195 316.495 89.37 316.495 88.23V65.91C316.495 64.77 316.405 63.945 316.225 63.435C316.075 62.925 315.76 62.58 315.28 62.4C314.83 62.22 314.11 62.1 313.12 62.04V61.14C316.36 61.23 321.25 61.275 327.79 61.275C332.2 61.275 335.335 61.23 337.195 61.14C336.985 63.63 336.88 65.85 336.88 67.8C336.88 69.12 336.925 70.14 337.015 70.86H335.98C335.53 67.65 334.72 65.4 333.55 64.11C332.38 62.82 330.73 62.175 328.6 62.175H326.755C325.825 62.175 325.15 62.25 324.73 62.4C324.31 62.55 324.025 62.85 323.875 63.3C323.725 63.72 323.65 64.41 323.65 65.37V76.53H325.09C326.68 76.53 327.88 75.945 328.69 74.775C329.53 73.605 330.115 72.21 330.445 70.59H331.48C331.39 71.85 331.345 73.26 331.345 74.82V76.98C331.345 78.51 331.435 80.64 331.615 83.37H330.58C329.95 79.41 328.12 77.43 325.09 77.43H323.65V88.77C323.65 89.73 323.725 90.435 323.875 90.885C324.025 91.305 324.31 91.59 324.73 91.74C325.15 91.89 325.825 91.965 326.755 91.965H328.96C331.09 91.965 332.8 91.245 334.09 89.805C335.41 88.335 336.34 85.86 336.88 82.38H337.915C337.825 83.37 337.78 84.63 337.78 86.16ZM357.975 60.51C359.775 60.51 361.305 60.765 362.565 61.275C363.825 61.785 365.055 62.505 366.255 63.435C366.585 63.705 366.87 63.84 367.11 63.84C367.71 63.84 368.1 62.94 368.28 61.14H369.315C369.195 63.18 369.135 66.81 369.135 72.03H368.1C367.83 69.81 367.47 68.115 367.02 66.945C366.57 65.775 365.805 64.755 364.725 63.885C363.975 63.165 363.105 62.625 362.115 62.265C361.125 61.875 360.09 61.68 359.01 61.68C355.98 61.68 353.73 63.165 352.26 66.135C350.79 69.075 350.055 72.75 350.055 77.16C350.055 81.54 350.82 85.2 352.35 88.14C353.88 91.08 356.16 92.55 359.19 92.55C360.21 92.55 361.215 92.37 362.205 92.01C363.225 91.62 364.08 91.065 364.77 90.345C365.88 89.505 366.645 88.455 367.065 87.195C367.515 85.935 367.86 84.09 368.1 81.66H369.135C369.135 87.09 369.195 90.87 369.315 93H368.28C368.19 92.04 368.055 91.365 367.875 90.975C367.725 90.555 367.5 90.345 367.2 90.345C366.96 90.345 366.645 90.465 366.255 90.705C364.905 91.665 363.615 92.4 362.385 92.91C361.155 93.39 359.67 93.63 357.93 93.63C354.75 93.63 351.96 92.985 349.56 91.695C347.19 90.405 345.345 88.545 344.025 86.115C342.705 83.655 342.045 80.73 342.045 77.34C342.045 74.04 342.72 71.115 344.07 68.565C345.42 66.015 347.295 64.035 349.695 62.625C352.125 61.215 354.885 60.51 357.975 60.51ZM406.354 62.04C405.334 62.1 404.599 62.22 404.149 62.4C403.699 62.58 403.384 62.925 403.204 63.435C403.054 63.945 402.979 64.77 402.979 65.91V88.23C402.979 89.37 403.054 90.195 403.204 90.705C403.384 91.215 403.699 91.56 404.149 91.74C404.599 91.92 405.334 92.04 406.354 92.1V93C404.884 92.91 402.604 92.865 399.514 92.865C396.484 92.865 394.129 92.91 392.449 93V92.1C393.439 92.04 394.159 91.92 394.609 91.74C395.089 91.56 395.404 91.215 395.554 90.705C395.734 90.195 395.824 89.37 395.824 88.23V77.43H383.899V88.23C383.899 89.37 383.974 90.195 384.124 90.705C384.304 91.215 384.619 91.56 385.069 91.74C385.519 91.92 386.254 92.04 387.274 92.1V93C385.654 92.91 383.389 92.865 380.479 92.865C377.269 92.865 374.899 92.91 373.369 93V92.1C374.359 92.04 375.079 91.92 375.529 91.74C376.009 91.56 376.324 91.215 376.474 90.705C376.654 90.195 376.744 89.37 376.744 88.23V65.91C376.744 64.77 376.654 63.945 376.474 63.435C376.324 62.925 376.009 62.58 375.529 62.4C375.079 62.22 374.359 62.1 373.369 62.04V61.14C374.899 61.23 377.269 61.275 380.479 61.275C383.389 61.275 385.654 61.23 387.274 61.14V62.04C386.254 62.1 385.519 62.22 385.069 62.4C384.619 62.58 384.304 62.925 384.124 63.435C383.974 63.945 383.899 64.77 383.899 65.91V76.53H395.824V65.91C395.824 64.77 395.734 63.945 395.554 63.435C395.404 62.925 395.089 62.58 394.609 62.4C394.159 62.22 393.439 62.1 392.449 62.04V61.14C394.129 61.23 396.484 61.275 399.514 61.275C402.604 61.275 404.884 61.23 406.354 61.14V62.04Z" fill="#E91F4F"/>
<path d="M179.94 107.9C180.567 107.9 181.08 107.88 181.48 107.84V108.24C181.147 108.373 180.82 108.633 180.5 109.02C180.193 109.393 179.933 109.927 179.72 110.62L176.2 122.04C176.053 122.027 175.82 122.02 175.5 122.02C175.18 122.02 174.947 122.027 174.8 122.04L171.86 113.12L168.9 122.04C168.753 122.027 168.52 122.02 168.2 122.02C167.88 122.02 167.647 122.027 167.5 122.04L163.02 109.52C162.86 109.08 162.667 108.76 162.44 108.56C162.213 108.36 161.987 108.253 161.76 108.24V107.84C162.56 107.88 163.553 107.9 164.74 107.9C165.86 107.9 166.68 107.88 167.2 107.84V108.24C166.733 108.307 166.5 108.567 166.5 109.02C166.5 109.233 166.56 109.533 166.68 109.92L169.6 118.38L171.62 112.42L170.6 109.32C170.467 108.933 170.307 108.667 170.12 108.52C169.947 108.36 169.74 108.267 169.5 108.24V107.84C170.247 107.88 171.2 107.9 172.36 107.9C173.667 107.9 174.627 107.88 175.24 107.84V108.24C174.76 108.253 174.413 108.313 174.2 108.42C173.987 108.513 173.88 108.7 173.88 108.98C173.88 109.22 173.947 109.533 174.08 109.92L176.82 118.28L178.72 112.24C179.027 111.24 179.18 110.467 179.18 109.92C179.18 109.347 179.033 108.933 178.74 108.68C178.46 108.413 178.033 108.267 177.46 108.24V107.84C178.367 107.88 179.193 107.9 179.94 107.9ZM192.475 119.4C192.475 120.16 192.522 121.027 192.615 122C191.749 121.96 190.289 121.94 188.235 121.94C185.489 121.94 183.422 121.96 182.035 122V121.6C182.489 121.573 182.815 121.52 183.015 121.44C183.215 121.36 183.349 121.207 183.415 120.98C183.495 120.753 183.535 120.387 183.535 119.88V111.96C183.535 111.453 183.495 111.087 183.415 110.86C183.349 110.633 183.209 110.48 182.995 110.4C182.795 110.32 182.475 110.267 182.035 110.24V109.84C183.422 109.88 185.489 109.9 188.235 109.9C190.102 109.9 191.429 109.88 192.215 109.84C192.122 110.733 192.075 111.533 192.075 112.24C192.075 112.76 192.095 113.173 192.135 113.48H191.675C191.475 112.333 191.129 111.52 190.635 111.04C190.142 110.547 189.462 110.3 188.595 110.3H187.855C187.509 110.3 187.249 110.333 187.075 110.4C186.902 110.453 186.775 110.573 186.695 110.76C186.629 110.933 186.595 111.213 186.595 111.6V115.68H187.535C188.149 115.68 188.609 115.467 188.915 115.04C189.235 114.6 189.449 114.093 189.555 113.52H190.015C189.975 113.973 189.955 114.493 189.955 115.08V115.88C189.955 116.48 189.995 117.267 190.075 118.24H189.615C189.522 117.613 189.309 117.1 188.975 116.7C188.655 116.287 188.175 116.08 187.535 116.08H186.595V120.24C186.595 120.627 186.629 120.913 186.695 121.1C186.775 121.273 186.902 121.393 187.075 121.46C187.249 121.513 187.509 121.54 187.855 121.54H188.715C189.662 121.54 190.402 121.267 190.935 120.72C191.482 120.173 191.862 119.253 192.075 117.96H192.535C192.495 118.333 192.475 118.813 192.475 119.4ZM206.011 114.56C207.744 114.693 209.018 115.093 209.831 115.76C210.644 116.427 211.051 117.213 211.051 118.12C211.051 119.36 210.564 120.32 209.591 121C208.618 121.667 207.264 122 205.531 122C205.144 122 204.818 121.993 204.551 121.98C203.671 121.953 202.811 121.94 201.971 121.94C200.598 121.94 199.571 121.96 198.891 122V121.6C199.331 121.573 199.651 121.52 199.851 121.44C200.064 121.36 200.204 121.207 200.271 120.98C200.351 120.753 200.391 120.387 200.391 119.88V109.96C200.391 109.453 200.351 109.087 200.271 108.86C200.204 108.633 200.064 108.48 199.851 108.4C199.651 108.32 199.331 108.267 198.891 108.24V107.84C199.571 107.88 200.584 107.9 201.931 107.9L204.151 107.88C204.418 107.867 204.724 107.86 205.071 107.86C206.671 107.86 207.891 108.147 208.731 108.72C209.584 109.293 210.011 110.053 210.011 111C210.011 111.773 209.671 112.493 208.991 113.16C208.324 113.827 207.331 114.28 206.011 114.52V114.56ZM204.811 108.24C204.451 108.24 204.184 108.287 204.011 108.38C203.851 108.473 203.738 108.64 203.671 108.88C203.604 109.12 203.571 109.48 203.571 109.96V114.48H204.431C205.298 114.48 205.904 114.187 206.251 113.6C206.598 113 206.771 112.207 206.771 111.22C206.771 110.22 206.611 109.473 206.291 108.98C205.984 108.487 205.491 108.24 204.811 108.24ZM204.951 121.54C206.804 121.54 207.731 120.373 207.731 118.04C207.731 116.987 207.464 116.187 206.931 115.64C206.398 115.093 205.558 114.82 204.411 114.82H203.571V119.88C203.571 120.36 203.604 120.713 203.671 120.94C203.738 121.167 203.864 121.327 204.051 121.42C204.251 121.5 204.551 121.54 204.951 121.54ZM224.728 110.24C224.262 110.307 223.915 110.42 223.688 110.58C223.462 110.74 223.308 110.993 223.228 111.34C223.148 111.687 223.108 112.2 223.108 112.88V116.58C223.108 117.5 223.042 118.287 222.908 118.94C222.788 119.58 222.582 120.14 222.288 120.62C221.968 121.127 221.488 121.533 220.848 121.84C220.222 122.133 219.508 122.28 218.708 122.28C217.202 122.28 216.028 121.987 215.188 121.4C214.722 121.053 214.368 120.68 214.128 120.28C213.888 119.88 213.715 119.4 213.608 118.84C213.515 118.267 213.468 117.533 213.468 116.64V111.96C213.468 111.453 213.428 111.087 213.348 110.86C213.282 110.633 213.142 110.48 212.928 110.4C212.728 110.32 212.408 110.267 211.968 110.24V109.84C212.635 109.88 213.648 109.9 215.008 109.9C216.302 109.9 217.308 109.88 218.028 109.84V110.24C217.575 110.267 217.248 110.32 217.048 110.4C216.848 110.48 216.708 110.633 216.628 110.86C216.562 111.087 216.528 111.453 216.528 111.96V116.98C216.528 117.94 216.588 118.733 216.708 119.36C216.842 119.987 217.115 120.493 217.528 120.88C217.942 121.267 218.555 121.46 219.368 121.46C220.582 121.46 221.428 121.053 221.908 120.24C222.402 119.413 222.648 118.267 222.648 116.8V113.12C222.648 112.347 222.602 111.773 222.508 111.4C222.415 111.027 222.235 110.76 221.968 110.6C221.702 110.427 221.282 110.307 220.708 110.24V109.84C221.228 109.88 221.948 109.9 222.868 109.9C223.668 109.9 224.288 109.88 224.728 109.84V110.24ZM231.709 110.24C231.255 110.267 230.929 110.32 230.729 110.4C230.529 110.48 230.389 110.633 230.309 110.86C230.242 111.087 230.209 111.453 230.209 111.96V119.88C230.209 120.387 230.242 120.753 230.309 120.98C230.389 121.207 230.529 121.36 230.729 121.44C230.929 121.52 231.255 121.573 231.709 121.6V122C231.029 121.96 230.042 121.94 228.749 121.94C227.349 121.94 226.315 121.96 225.649 122V121.6C226.102 121.573 226.429 121.52 226.629 121.44C226.829 121.36 226.962 121.207 227.029 120.98C227.109 120.753 227.149 120.387 227.149 119.88V111.96C227.149 111.453 227.109 111.087 227.029 110.86C226.962 110.633 226.822 110.48 226.609 110.4C226.409 110.32 226.089 110.267 225.649 110.24V109.84C226.302 109.88 227.335 109.9 228.749 109.9C230.042 109.9 231.029 109.88 231.709 109.84V110.24ZM239.131 110.24C238.677 110.267 238.351 110.32 238.151 110.4C237.951 110.48 237.811 110.633 237.731 110.86C237.664 111.087 237.631 111.453 237.631 111.96V120.12C237.631 120.533 237.664 120.84 237.731 121.04C237.811 121.24 237.937 121.373 238.111 121.44C238.284 121.507 238.544 121.54 238.891 121.54H239.671C240.551 121.54 241.291 121.227 241.891 120.6C242.491 119.96 242.897 118.933 243.111 117.52H243.571C243.531 117.96 243.511 118.507 243.511 119.16C243.511 119.987 243.557 120.933 243.651 122C242.784 121.96 241.324 121.94 239.271 121.94C236.524 121.94 234.457 121.96 233.071 122V121.6C233.524 121.573 233.851 121.52 234.051 121.44C234.251 121.36 234.384 121.207 234.451 120.98C234.531 120.753 234.571 120.387 234.571 119.88V111.96C234.571 111.453 234.531 111.087 234.451 110.86C234.384 110.633 234.244 110.48 234.031 110.4C233.831 110.32 233.511 110.267 233.071 110.24V109.84C233.751 109.88 234.804 109.9 236.231 109.9C237.484 109.9 238.451 109.88 239.131 109.84V110.24ZM250.908 109.84C253.241 109.84 254.988 110.347 256.148 111.36C257.308 112.36 257.888 113.827 257.888 115.76C257.888 117.013 257.608 118.113 257.048 119.06C256.488 119.993 255.668 120.72 254.588 121.24C253.508 121.747 252.221 122 250.728 122L249.448 121.98C248.595 121.953 247.968 121.94 247.568 121.94C246.381 121.94 245.475 121.96 244.848 122V121.6C245.301 121.573 245.628 121.52 245.828 121.44C246.028 121.36 246.161 121.207 246.228 120.98C246.308 120.753 246.348 120.387 246.348 119.88V111.96C246.348 111.453 246.308 111.087 246.228 110.86C246.161 110.633 246.028 110.48 245.828 110.4C245.628 110.32 245.301 110.267 244.848 110.24V109.84C245.355 109.88 246.068 109.9 246.988 109.9L248.908 109.88C249.895 109.853 250.561 109.84 250.908 109.84ZM250.648 110.2C250.301 110.2 250.041 110.247 249.868 110.34C249.695 110.433 249.575 110.6 249.508 110.84C249.441 111.08 249.408 111.44 249.408 111.92V119.92C249.408 120.4 249.441 120.76 249.508 121C249.575 121.24 249.695 121.407 249.868 121.5C250.041 121.593 250.308 121.64 250.668 121.64C251.695 121.64 252.501 121.427 253.088 121C253.675 120.56 254.088 119.92 254.328 119.08C254.568 118.24 254.688 117.16 254.688 115.84C254.688 113.893 254.381 112.467 253.768 111.56C253.155 110.653 252.115 110.2 250.648 110.2ZM276.865 108.24C276.425 108.307 276.099 108.42 275.885 108.58C275.685 108.74 275.545 108.993 275.465 109.34C275.399 109.687 275.365 110.2 275.365 110.88V116.18C275.365 118.087 275.092 119.5 274.545 120.42C274.185 121.007 273.665 121.467 272.985 121.8C272.305 122.12 271.472 122.28 270.485 122.28C268.939 122.28 267.739 121.947 266.885 121.28C266.272 120.787 265.859 120.167 265.645 119.42C265.432 118.66 265.325 117.6 265.325 116.24V109.96C265.325 109.453 265.285 109.087 265.205 108.86C265.139 108.633 264.999 108.48 264.785 108.4C264.585 108.32 264.265 108.267 263.825 108.24V107.84C264.505 107.88 265.545 107.9 266.945 107.9C268.332 107.9 269.392 107.88 270.125 107.84V108.24C269.645 108.267 269.292 108.32 269.065 108.4C268.852 108.48 268.705 108.633 268.625 108.86C268.545 109.087 268.505 109.453 268.505 109.96V117.5C268.505 118.9 268.705 119.933 269.105 120.6C269.519 121.253 270.239 121.58 271.265 121.58C272.599 121.58 273.539 121.133 274.085 120.24C274.632 119.333 274.905 118.053 274.905 116.4V111.12C274.905 110.347 274.859 109.773 274.765 109.4C274.672 109.027 274.492 108.76 274.225 108.6C273.959 108.427 273.539 108.307 272.965 108.24V107.84C273.472 107.88 274.192 107.9 275.125 107.9C275.872 107.9 276.452 107.88 276.865 107.84V108.24ZM290.337 110.24C289.897 110.307 289.571 110.407 289.357 110.54C289.157 110.673 289.017 110.887 288.937 111.18C288.871 111.473 288.837 111.92 288.837 112.52V122.04L288.297 122.02L287.777 122.04L279.777 112.1V119.32C279.777 119.907 279.831 120.353 279.937 120.66C280.044 120.953 280.237 121.167 280.517 121.3C280.797 121.433 281.237 121.533 281.837 121.6V122C281.237 121.96 280.477 121.94 279.557 121.94C278.824 121.94 278.244 121.96 277.817 122V121.6C278.257 121.533 278.577 121.433 278.777 121.3C278.991 121.167 279.131 120.953 279.197 120.66C279.277 120.367 279.317 119.92 279.317 119.32V111.96C279.317 111.453 279.277 111.087 279.197 110.86C279.131 110.633 278.991 110.48 278.777 110.4C278.577 110.32 278.257 110.267 277.817 110.24V109.84C278.244 109.88 278.824 109.9 279.557 109.9C280.504 109.9 281.317 109.88 281.997 109.84L288.377 117.76V112.52C288.377 111.933 288.324 111.493 288.217 111.2C288.111 110.893 287.911 110.673 287.617 110.54C287.337 110.407 286.904 110.307 286.317 110.24V109.84C286.904 109.88 287.664 109.9 288.597 109.9C289.344 109.9 289.924 109.88 290.337 109.84V110.24ZM297.568 110.24C297.115 110.267 296.788 110.32 296.588 110.4C296.388 110.48 296.248 110.633 296.168 110.86C296.101 111.087 296.068 111.453 296.068 111.96V119.88C296.068 120.387 296.101 120.753 296.168 120.98C296.248 121.207 296.388 121.36 296.588 121.44C296.788 121.52 297.115 121.573 297.568 121.6V122C296.888 121.96 295.901 121.94 294.608 121.94C293.208 121.94 292.175 121.96 291.508 122V121.6C291.961 121.573 292.288 121.52 292.488 121.44C292.688 121.36 292.821 121.207 292.888 120.98C292.968 120.753 293.008 120.387 293.008 119.88V111.96C293.008 111.453 292.968 111.087 292.888 110.86C292.821 110.633 292.681 110.48 292.468 110.4C292.268 110.32 291.948 110.267 291.508 110.24V109.84C292.161 109.88 293.195 109.9 294.608 109.9C295.901 109.9 296.888 109.88 297.568 109.84V110.24ZM314.854 122.76C314.588 123.733 314.094 124.473 313.374 124.98C312.654 125.5 311.734 125.76 310.614 125.76C309.668 125.76 308.741 125.633 307.834 125.38C306.941 125.127 305.814 124.74 304.454 124.22C303.654 123.913 303.001 123.673 302.494 123.5C302.241 123.633 301.961 123.733 301.654 123.8C301.361 123.88 301.081 123.92 300.814 123.92C300.534 123.92 300.308 123.873 300.134 123.78C299.961 123.7 299.874 123.573 299.874 123.4C299.874 123.04 300.241 122.86 300.974 122.86C301.468 122.86 301.974 122.953 302.494 123.14C302.894 123.033 303.401 122.847 304.014 122.58C304.361 122.42 304.634 122.307 304.834 122.24C303.008 122.093 301.568 121.48 300.514 120.4C299.461 119.32 298.934 117.867 298.934 116.04C298.934 114.76 299.221 113.633 299.794 112.66C300.368 111.673 301.168 110.913 302.194 110.38C303.221 109.833 304.388 109.56 305.694 109.56C307.041 109.56 308.221 109.807 309.234 110.3C310.248 110.78 311.034 111.493 311.594 112.44C312.154 113.373 312.434 114.493 312.434 115.8C312.434 117.013 312.174 118.093 311.654 119.04C311.134 119.987 310.408 120.74 309.474 121.3C308.554 121.86 307.488 122.18 306.274 122.26C305.954 122.287 305.668 122.34 305.414 122.42C305.161 122.513 304.841 122.64 304.454 122.8C303.908 123.04 303.448 123.2 303.074 123.28C303.181 123.293 303.368 123.3 303.634 123.3C303.874 123.3 304.314 123.287 304.954 123.26C305.434 123.22 305.914 123.2 306.394 123.2C307.194 123.2 308.208 123.307 309.434 123.52C310.421 123.693 311.188 123.78 311.734 123.78C312.534 123.78 313.141 123.687 313.554 123.5C313.981 123.327 314.314 123.033 314.554 122.62L314.854 122.76ZM302.134 115.96C302.134 117.147 302.294 118.193 302.614 119.1C302.934 120.007 303.368 120.707 303.914 121.2C304.474 121.68 305.088 121.92 305.754 121.92C306.448 121.92 307.054 121.667 307.574 121.16C308.108 120.64 308.514 119.927 308.794 119.02C309.088 118.1 309.234 117.053 309.234 115.88C309.234 114.693 309.074 113.647 308.754 112.74C308.434 111.833 307.994 111.14 307.434 110.66C306.888 110.167 306.281 109.92 305.614 109.92C304.921 109.92 304.308 110.18 303.774 110.7C303.254 111.207 302.848 111.92 302.554 112.84C302.274 113.747 302.134 114.787 302.134 115.96ZM326.252 110.24C325.785 110.307 325.439 110.42 325.212 110.58C324.985 110.74 324.832 110.993 324.752 111.34C324.672 111.687 324.632 112.2 324.632 112.88V116.58C324.632 117.5 324.565 118.287 324.432 118.94C324.312 119.58 324.105 120.14 323.812 120.62C323.492 121.127 323.012 121.533 322.372 121.84C321.745 122.133 321.032 122.28 320.232 122.28C318.725 122.28 317.552 121.987 316.712 121.4C316.245 121.053 315.892 120.68 315.652 120.28C315.412 119.88 315.239 119.4 315.132 118.84C315.039 118.267 314.992 117.533 314.992 116.64V111.96C314.992 111.453 314.952 111.087 314.872 110.86C314.805 110.633 314.665 110.48 314.452 110.4C314.252 110.32 313.932 110.267 313.492 110.24V109.84C314.159 109.88 315.172 109.9 316.532 109.9C317.825 109.9 318.832 109.88 319.552 109.84V110.24C319.099 110.267 318.772 110.32 318.572 110.4C318.372 110.48 318.232 110.633 318.152 110.86C318.085 111.087 318.052 111.453 318.052 111.96V116.98C318.052 117.94 318.112 118.733 318.232 119.36C318.365 119.987 318.639 120.493 319.052 120.88C319.465 121.267 320.079 121.46 320.892 121.46C322.105 121.46 322.952 121.053 323.432 120.24C323.925 119.413 324.172 118.267 324.172 116.8V113.12C324.172 112.347 324.125 111.773 324.032 111.4C323.939 111.027 323.759 110.76 323.492 110.6C323.225 110.427 322.805 110.307 322.232 110.24V109.84C322.752 109.88 323.472 109.9 324.392 109.9C325.192 109.9 325.812 109.88 326.252 109.84V110.24ZM337.612 119.4C337.612 120.16 337.659 121.027 337.752 122C336.886 121.96 335.426 121.94 333.372 121.94C330.626 121.94 328.559 121.96 327.172 122V121.6C327.626 121.573 327.952 121.52 328.152 121.44C328.352 121.36 328.486 121.207 328.552 120.98C328.632 120.753 328.672 120.387 328.672 119.88V111.96C328.672 111.453 328.632 111.087 328.552 110.86C328.486 110.633 328.346 110.48 328.132 110.4C327.932 110.32 327.612 110.267 327.172 110.24V109.84C328.559 109.88 330.626 109.9 333.372 109.9C335.239 109.9 336.566 109.88 337.352 109.84C337.259 110.733 337.212 111.533 337.212 112.24C337.212 112.76 337.232 113.173 337.272 113.48H336.812C336.612 112.333 336.266 111.52 335.772 111.04C335.279 110.547 334.599 110.3 333.732 110.3H332.992C332.646 110.3 332.386 110.333 332.212 110.4C332.039 110.453 331.912 110.573 331.832 110.76C331.766 110.933 331.732 111.213 331.732 111.6V115.68H332.672C333.286 115.68 333.746 115.467 334.052 115.04C334.372 114.6 334.586 114.093 334.692 113.52H335.152C335.112 113.973 335.092 114.493 335.092 115.08V115.88C335.092 116.48 335.132 117.267 335.212 118.24H334.752C334.659 117.613 334.446 117.1 334.112 116.7C333.792 116.287 333.312 116.08 332.672 116.08H331.732V120.24C331.732 120.627 331.766 120.913 331.832 121.1C331.912 121.273 332.039 121.393 332.212 121.46C332.386 121.513 332.646 121.54 332.992 121.54H333.852C334.799 121.54 335.539 121.267 336.072 120.72C336.619 120.173 336.999 119.253 337.212 117.96H337.672C337.632 118.333 337.612 118.813 337.612 119.4Z" fill="white"/>
<path d="M339 115.5L365.608 111.884L377.75 115.5L365.608 119.117L339 115.5Z" fill="white"/>
<path d="M372.066 100L396.091 115.5L372.066 131L380.333 115.5L372.066 100Z" fill="white"/>
</svg>
